<svg width="22" height="48" viewBox="0 0 22 48" fill="none" xmlns="http://www.w3.org/2000/svg">
<g clip-path="url(#clip0_4640_2581)">
<path d="M1.74645 22.638L0 20.0032L12.4746 2.02465C12.9972 1.27132 13.7212 0.687869 14.5599 0.344166C15.3987 0.000462442 16.3166 -0.0889214 17.2038 0.0867188L22 20.532L20.0562 22.5949L10.1479 20.5707L1.74645 22.638ZM10.4408 17.1629L18.1583 18.74L14.8231 4.52126L5.27968 18.2726H5.28899L9.72461 17.1806L10.4408 17.1629Z" fill="white"/>
<path d="M4.79621 47.9129L0 27.467L1.9438 25.4041L11.854 27.4289L20.2554 25.3604L22.0019 27.9958L9.52291 45.975C9.00043 46.7277 8.27682 47.3108 7.43859 47.6545C6.60037 47.9982 5.68301 48.0879 4.79621 47.9129ZM3.84168 29.2584L7.17693 43.4777L16.7203 29.727L12.2754 30.819L11.5592 30.833L3.84168 29.2584Z" fill="white"/>
</g>
<defs>
<clipPath id="clip0_4640_2581">
<rect width="22" height="48" fill="white"/>
</clipPath>
</defs>
</svg>
